<?xml version="1.0" standalone="no"?>
<!DOCTYPE svg PUBLIC "-//W3C//DTD SVG 20010904//EN"
 "http://www.w3.org/TR/2001/REC-SVG-20010904/DTD/svg10.dtd">
<svg version="1.0"

 preserveAspectRatio="xMidYMid meet">

 <svg data-v-423bf9ae="" xmlns="http://www.w3.org/2000/svg" viewBox="0 0 512.000000 512.000000" width="512.000000pt" height="512.000000pt class="iconLeft"><!----><!----><!----><g data-v-423bf9ae="" id="c67634de-f1ab-490f-a5df-682b25ef3542" fill="#000000" transform="matrix(3.76884420304397,0,0,3.76884420304397,121.12338944508218,-41.19346553863129)"><path d="M10.11 27.40L9.30 27.15L0.81 27.15L0.81 26.64L2.13 25.61L2.13 17.25L0.64 16.76L0.97 16.13L9.16 16.13L9.97 15.88L9.97 19.17L9.48 19.33L7.80 16.84L4.03 16.84L4.03 21.15L6.12 21.15L7.14 19.40L7.64 19.40L7.64 23.62L7.01 23.94L6.13 21.87L4.03 21.87L4.03 26.42L7.73 26.42L9.62 23.63L10.11 23.81L10.11 27.40ZM16.20 26.52L15.88 27.15L11.87 27.15L11.87 26.64L13.12 25.65L13.12 17.22L11.87 16.35L11.87 15.85L14.34 14.91L14.94 14.91L14.94 26.04L16.20 26.52ZM21.55 27.80L21.55 27.80Q22.23 28.32 22.48 28.67L22.48 28.67L22.48 28.67Q22.74 29.02 22.74 29.41L22.74 29.41L22.74 29.41Q22.74 30.06 22.06 30.41L22.06 30.41L22.06 30.41Q21.39 30.76 19.98 30.83L19.98 30.83L19.98 30.32L19.98 30.32Q21.21 29.93 21.21 29.16L21.21 29.16L21.21 29.16Q21.21 28.85 21.01 28.62L21.01 28.62L21.01 28.62Q20.80 28.38 20.31 28.07L20.31 28.07L21.28 27.26L20.89 27.26L20.89 27.26Q19.95 27.26 19.20 26.78L19.20 26.78L19.20 26.78Q18.45 26.29 18.03 25.47L18.03 25.47L18.03 25.47Q17.60 24.64 17.60 23.63L17.60 23.63L17.60 23.63Q17.60 22.54 18.22 21.60L18.22 21.60L18.22 21.60Q18.84 20.65 19.78 20.08L19.78 20.08L19.78 20.08Q20.72 19.52 21.60 19.52L21.60 19.52L21.60 19.52Q22.19 19.52 22.97 19.68L22.97 19.68L22.97 19.68Q23.76 19.84 24.11 20.03L24.11 20.03L24.11 22.29L23.51 22.29L23.51 22.29Q22.96 21.59 22.26 21.19L22.26 21.19L22.26 21.19Q21.56 20.79 20.80 20.79L20.80 20.79L20.80 20.79Q20.19 20.79 19.87 21.34L19.87 21.34L19.87 21.34Q19.56 21.90 19.56 22.96L19.56 22.96L19.56 22.96Q19.56 24.25 20.11 25.10L20.11 25.10L20.11 25.10Q20.66 25.96 21.70 25.96L21.70 25.96L21.70 25.96Q22.51 25.96 24.04 24.86L24.04 24.86L24.46 25.45L22.41 27.06L21.52 27.80L21.55 27.80ZM30.35 26.50L30.03 27.13L26.03 27.13L26.03 26.63L27.27 25.63L27.27 21.71L26.03 20.86L26.03 20.36L28.49 19.40L29.09 19.40L29.09 26.04L30.35 26.50ZM28.13 15.20L28.13 15.20Q28.59 15.20 28.88 15.53L28.88 15.53L28.88 15.53Q29.18 15.86 29.18 16.34L29.18 16.34L29.18 16.34Q29.18 16.67 28.97 16.98L28.97 16.98L28.97 16.98Q28.76 17.28 28.43 17.45L28.43 17.45L28.43 17.45Q28.11 17.63 27.80 17.63L27.80 17.63L27.80 17.63Q27.36 17.63 27.06 17.30L27.06 17.30L27.06 17.30Q26.77 16.98 26.77 16.49L26.77 16.49L26.77 16.49Q26.77 16.16 26.98 15.86L26.98 15.86L26.98 15.86Q27.19 15.55 27.51 15.38L27.51 15.38L27.51 15.38Q27.83 15.20 28.13 15.20L28.13 15.20ZM40.61 26.52L40.29 27.15L37.53 27.15L37.53 22.47L37.53 22.47Q37.53 21.73 37.30 21.43L37.30 21.43L37.30 21.43Q37.06 21.13 36.47 21.13L36.47 21.13L36.47 21.13Q36.04 21.13 35.60 21.28L35.60 21.28L35.60 21.28Q35.17 21.43 34.59 21.87L34.59 21.87L34.59 26.05L35.85 26.52L35.53 27.15L31.53 27.15L31.53 26.64L32.77 25.65L32.77 21.84L31.53 21.10L31.53 20.59L34.02 19.40L34.51 21.18L36.44 19.64L36.44 19.64Q36.76 19.53 37.23 19.53L37.23 19.53L37.23 19.53Q38.21 19.53 38.78 20.11L38.78 20.11L38.78 20.11Q39.35 20.69 39.35 21.69L39.35 21.69L39.35 26.04L40.61 26.52ZM54.87 27.40L54.05 27.15L45.57 27.15L45.57 26.64L46.89 25.61L46.89 17.25L45.40 16.76L45.72 16.13L53.91 16.13L54.73 15.88L54.73 19.17L54.24 19.33L52.56 16.84L48.79 16.84L48.79 21.15L50.88 21.15L51.90 19.40L52.40 19.40L52.40 23.62L51.77 23.94L50.89 21.87L48.79 21.87L48.79 26.42L52.49 26.42L54.38 23.63L54.87 23.81L54.87 27.40ZM59.70 26.05L60.96 26.52L60.63 27.15L56.63 27.15L56.63 26.64L57.88 25.65L57.88 17.22L56.63 16.35L56.63 15.85L59.09 14.91L59.70 14.91L59.70 26.05ZM65.74 26.52L65.44 27.15L62.96 27.15L60.40 23.44L62.99 21.28L61.57 20.31L61.88 19.68L65.37 19.68L65.37 20.19L62.17 22.86L64.44 26.03L65.74 26.52ZM72.88 24.81L72.88 24.81Q72.88 25.31 72.45 25.87L72.45 25.87L72.45 25.87Q72.02 26.43 71.39 26.82L71.39 26.82L71.39 26.82Q71.39 26.82 70.55 27.54L70.55 27.54L70.22 27.80L70.22 27.80Q70.91 28.32 71.16 28.67L71.16 28.67L71.16 28.67Q71.41 29.02 71.41 29.41L71.41 29.41L71.41 29.41Q71.41 30.06 70.74 30.41L70.74 30.41L70.74 30.41Q70.07 30.76 68.66 30.83L68.66 30.83L68.66 30.32L68.66 30.32Q69.89 29.93 69.89 29.16L69.89 29.16L69.89 29.16Q69.89 28.85 69.69 28.62L69.69 28.62L69.69 28.62Q69.48 28.38 68.99 28.07L68.99 28.07L69.96 27.27L69.96 27.27Q69.24 27.24 68.35 27.09L68.35 27.09L68.35 27.09Q67.45 26.94 67.06 26.75L67.06 26.75L67.06 24.54L67.66 24.54L67.66 24.54Q68.14 25.38 68.80 25.85L68.80 25.85L68.80 25.85Q69.45 26.32 70.13 26.32L70.13 26.32L70.13 26.32Q70.56 26.32 70.83 26.10L70.83 26.10L70.83 26.10Q71.09 25.87 71.09 25.56L71.09 25.56L71.09 25.56Q71.09 25.20 70.67 24.89L70.67 24.89L70.67 24.89Q70.25 24.57 69.38 24.11L69.38 24.11L69.38 24.11Q68.64 23.72 68.20 23.44L68.20 23.44L68.20 23.44Q67.76 23.16 67.45 22.79L67.45 22.79L67.45 22.79Q67.13 22.41 67.13 21.97L67.13 21.97L67.13 21.97Q67.13 21.46 67.56 20.89L67.56 20.89L67.56 20.89Q68.00 20.31 68.64 19.92L68.64 19.92L68.64 19.92Q69.27 19.53 69.80 19.53L69.80 19.53L69.80 19.53Q70.46 19.53 71.33 19.69L71.33 19.69L71.33 19.69Q72.20 19.85 72.59 20.05L72.59 20.05L72.59 22.25L71.99 22.25L71.99 22.25Q71.55 21.42 70.98 20.95L70.98 20.95L70.98 20.95Q70.41 20.48 69.79 20.48L69.79 20.48L69.79 20.48Q69.38 20.48 69.14 20.70L69.14 20.70L69.14 20.70Q68.89 20.92 68.89 21.24L68.89 21.24L68.89 21.24Q68.89 21.64 69.33 21.97L69.33 21.97L69.33 21.97Q69.76 22.29 70.67 22.78L70.67 22.78L70.67 22.78Q71.39 23.14 71.82 23.42L71.82 23.42L71.82 23.42Q72.25 23.69 72.56 24.05L72.56 24.05L72.56 24.05Q72.87 24.40 72.87 24.84L72.87 24.84L72.88 24.81ZM78.83 26.50L78.51 27.13L74.51 27.13L74.51 26.63L75.75 25.63L75.75 21.71L74.51 20.86L74.51 20.36L76.97 19.40L77.57 19.40L77.57 26.04L78.83 26.50ZM76.61 15.20L76.61 15.20Q77.07 15.20 77.36 15.53L77.36 15.53L77.36 15.53Q77.66 15.86 77.66 16.34L77.66 16.34L77.66 16.34Q77.66 16.67 77.45 16.98L77.45 16.98L77.45 16.98Q77.24 17.28 76.92 17.45L76.92 17.45L76.92 17.45Q76.59 17.63 76.29 17.63L76.29 17.63L76.29 17.63Q75.84 17.63 75.54 17.30L75.54 17.30L75.54 17.30Q75.25 16.98 75.25 16.49L75.25 16.49L75.25 16.49Q75.25 16.16 75.46 15.86L75.46 15.86L75.46 15.86Q75.67 15.55 75.99 15.38L75.99 15.38L75.99 15.38Q76.31 15.20 76.61 15.20L76.61 15.20Z">
 </path>
 </g>
</svg>
